<svg xmlns="http://www.w3.org/2000/svg" fill="none" viewBox="0 0 55 55"><style>path{fill:#dc6d2c}@media (prefers-color-scheme:dark){path{fill:#ddb631}}</style><g fill-rule="evenodd" clip-rule="evenodd"><path fill="#ffb712" d="M16 6c2.761 0 5 2.298 5 5.133v11.734C21 25.702 18.761 28 16 28s-5-2.298-5-5.133V11.133C11 8.298 13.239 6 16 6Zm23 0c2.761 0 5 2.298 5 5.133v11.733C44 25.701 41.761 28 39 28s-5-2.299-5-5.134V11.133C34 8.298 36.239 6 39 6z"/><path fill="#ff9e12" d="M10.101 31.973C8.51 29.787 5.523 29.35 3.416 31 1.3 32.657.871 35.791 2.458 38l3.832-3c-3.832 3-3.83 3.002-3.83 3.004l.004.004.006.009.015.02a8.959 8.959 0 0 0 .147.196c.087.115.205.265.353.445.295.36.712.845 1.25 1.41a31.991 31.991 0 0 0 4.721 4.057C13.12 47.078 19.34 50 27.5 50c8.16 0 14.38-2.922 18.544-5.855a31.994 31.994 0 0 0 4.722-4.057c.538-.565.954-1.05 1.25-1.41a17.331 17.331 0 0 0 .5-.641l.014-.02.006-.009.003-.004c.002-.002.003-.004-3.829-3.004l3.832 3c1.587-2.209 1.158-5.343-.958-7-2.107-1.65-5.093-1.213-6.685.973l-.015.019a15.473 15.473 0 0 1-.912 1.046 22.308 22.308 0 0 1-3.286 2.817C37.751 37.922 33.366 40 27.5 40s-10.252-2.078-13.186-4.145a22.307 22.307 0 0 1-3.286-2.817 15.488 15.488 0 0 1-.912-1.046l-.015-.02zm34.783.02-.003.004c0 .001-.002.003 3.706 2.906L44.879 32l.006-.007z"/></g></svg>